<svg xmlns="http://www.w3.org/2000/svg" viewBox="0 0 100 100" width="100" height="100" role="img" aria-label="Tokenizer">
  <defs>
    <radialGradient id="chipFace" cx="50%" cy="38%" r="70%">
      <stop offset="0%" stop-color="#FF6A52"></stop>
      <stop offset="60%" stop-color="#F9573F"></stop>
      <stop offset="100%" stop-color="#E8492F"></stop>
    </radialGradient>
  </defs>
  
  <circle cx="50" cy="50" r="47" fill="url(#chipFace)"></circle>
  
  <g>
    <path d="M67.986,6.578 A47,47 0 0 1 83.234,16.766 L76.163,23.837 A37,37 0 0 0 64.159,15.816 Z" fill="#FFFFFF"></path>
    <path d="M93.422,32.014 A47,47 0 0 1 97.000,50.000 L87.000,50.000 A37,37 0 0 0 84.184,35.841 Z" fill="#FFFFFF"></path>
    <path d="M93.422,67.986 A47,47 0 0 1 83.234,83.234 L76.163,76.163 A37,37 0 0 0 84.184,64.159 Z" fill="#FFFFFF"></path>
    <path d="M67.986,93.422 A47,47 0 0 1 50.000,97.000 L50.000,87.000 A37,37 0 0 0 64.159,84.184 Z" fill="#FFFFFF"></path>
    <path d="M32.014,93.422 A47,47 0 0 1 16.766,83.234 L23.837,76.163 A37,37 0 0 0 35.841,84.184 Z" fill="#FFFFFF"></path>
    <path d="M6.578,67.986 A47,47 0 0 1 3.000,50.000 L13.000,50.000 A37,37 0 0 0 15.816,64.159 Z" fill="#FFFFFF"></path>
    <path d="M6.578,32.014 A47,47 0 0 1 16.766,16.766 L23.837,23.837 A37,37 0 0 0 15.816,35.841 Z" fill="#FFFFFF"></path>
    <path d="M32.014,6.578 A47,47 0 0 1 50.000,3.000 L50.000,13.000 A37,37 0 0 0 35.841,15.816 Z" fill="#FFFFFF"></path>
    </g>
  
  <circle cx="50" cy="50" r="37" fill="none" stroke="#FFFFFF" stroke-width="2.4"></circle>
  <circle cx="50" cy="50" r="33.8" fill="url(#chipFace)"></circle>
  
  <path d="M34,33 H66 V41.5 H55 V67 H45 V41.5 H34 Z" fill="#FFFFFF"></path>
  
  <circle cx="50" cy="50" r="46.4" fill="none" stroke="rgba(0,0,0,0.16)" stroke-width="1.2"></circle>
</svg>